<svg width="181" height="29" viewBox="0 0 181 29" fill="none" xmlns="http://www.w3.org/2000/svg">
<path d="M24 2.0625C24 3.125 23.0625 4.0625 22 4.0625H14V26.0625C14 27.125 13.0625 28 12 28C10.875 28 10 27.125 10 26.0625V4.0625H2C0.875 4.0625 0 3.125 0 2.0625C0 0.9375 0.875 0.0625 2 0.0625H22C23.0625 0.0625 24 0.9375 24 2.0625ZM38.25 17.375L43.625 24.875C44.25 25.75 44 27 43.125 27.6875C42.75 27.9375 42.375 28.0625 42 28.0625C41.375 28.0625 40.75 27.75 40.3125 27.1875L33.8125 18H28V26C28 27.125 27.0625 28 26 28C24.875 28 24 27.125 24 26V2C24 0.9375 24.875 0 26 0H35C39.9375 0 44 4.0625 44 9C44 12.8125 41.625 16.0625 38.25 17.375ZM28 4.0625V14H35C37.75 14 40 11.8125 40 9.0625C40 6.25 37.75 4.0625 35 4.0625H28ZM64 26C64 27.125 63.0625 28 62 28H46C44.875 28 44 27.125 44 26C44 24.9375 44.875 24 46 24H52V4H46C44.875 4 44 3.125 44 2C44 0.9375 44.875 0 46 0H62C63.0625 0 64 0.9375 64 2C64 3.125 63.0625 4 62 4H56V24H62C63.0625 24 64 24.9375 64 26ZM84 2.0625C84 3.125 83.0625 4.0625 82 4.0625H68V12.0625H78C79.0625 12.0625 80 12.9375 80 14C80 15 79.0625 16 78 16H68V26C68 27.0625 67.0625 28 66 28C64.875 28 64 27.0625 64 26V2C64 0.9375 64.875 0.0625 66 0.0625H82C83.0625 0.0625 84 0.9375 84 2.0625ZM107.812 25.25C108.25 26.25 107.75 27.4375 106.75 27.875C106.5 28 106.25 28.0625 106 28.0625C105.188 28.0625 104.438 27.5625 104.125 26.8125L102.125 22.0625H89.8125L87.8125 26.8125C87.375 27.8125 86.25 28.3125 85.1875 27.875C84.1875 27.4375 83.6875 26.3125 84.125 25.25L94.125 1.25C94.4375 0.5 95.1875 0.0625 96 0.0625C96.75 0.0625 97.5 0.5 97.8125 1.25L107.812 25.25ZM91.4375 18H100.5L96 7.25L91.4375 18ZM130 20.5C131.375 20.5 131.938 21.75 131.938 22.5C131.938 23.9375 127.75 28.0625 121.625 28.0625C113.062 28.0625 107.938 20.6875 107.938 14.0625C107.938 7.5625 112.938 0.0625 121.625 0.0625C127.875 0.0625 131.938 4.25 131.938 5.625C131.938 6.375 131.312 7.625 129.938 7.625C127.938 7.625 127.062 4.0625 121.625 4.0625C115.5 4.0625 111.938 9.375 111.938 14.0625C111.938 18.6875 115.438 24.0625 121.625 24.0625C127.125 24 128 20.5 130 20.5ZM156 2.0625C156 3.125 155.062 4.0625 154 4.0625H146V26.0625C146 27.125 145.062 28 144 28C142.875 28 142 27.125 142 26.0625V4.0625H134C132.875 4.0625 132 3.125 132 2.0625C132 0.9375 132.875 0.0625 134 0.0625H154C155.062 0.0625 156 0.9375 156 2.0625ZM179.812 25.25C180.25 26.25 179.75 27.4375 178.75 27.875C178.5 28 178.25 28.0625 178 28.0625C177.188 28.0625 176.438 27.5625 176.125 26.8125L174.125 22.0625H161.812L159.812 26.8125C159.375 27.8125 158.25 28.3125 157.188 27.875C156.188 27.4375 155.688 26.3125 156.125 25.25L166.125 1.25C166.438 0.5 167.188 0.0625 168 0.0625C168.75 0.0625 169.5 0.5 169.812 1.25L179.812 25.25ZM163.438 18H172.5L168 7.25L163.438 18Z" fill="#193B62"/>
</svg>
